<svg width="15" height="15" viewBox="0 0 15 15" fill="none" xmlns="http://www.w3.org/2000/svg">
<g id="icon/maps/my_location_24px">
<path id="icon/maps/my_location_24px_2" fill-rule="evenodd" clip-rule="evenodd" d="M13.0875 6.875C12.8 4.26875 10.7312 2.2 8.125 1.9125V0.625H6.875V1.9125C4.26875 2.2 2.2 4.26875 1.9125 6.875H0.625V8.125H1.9125C2.2 10.7312 4.26875 12.8 6.875 13.0875V14.375H8.125V13.0875C10.7312 12.8 12.8 10.7312 13.0875 8.125H14.375V6.875H13.0875ZM7.49999 5C6.11874 5 4.99999 6.11875 4.99999 7.5C4.99999 8.88125 6.11874 10 7.49999 10C8.88124 10 9.99999 8.88125 9.99999 7.5C9.99999 6.11875 8.88124 5 7.49999 5ZM3.12499 7.5C3.12499 9.91875 5.08124 11.875 7.49999 11.875C9.91874 11.875 11.875 9.91875 11.875 7.5C11.875 5.08125 9.91874 3.125 7.49999 3.125C5.08124 3.125 3.12499 5.08125 3.12499 7.5Z" fill="#B3B3B3"/>
</g>
</svg>
