<svg width="22" height="22" viewBox="0 0 22 22" fill="none" xmlns="http://www.w3.org/2000/svg">
<path fill-rule="evenodd" clip-rule="evenodd" d="M11 13.5C12.3807 13.5 13.5 12.3807 13.5 11C13.5 9.61929 12.3807 8.5 11 8.5C9.61929 8.5 8.5 9.61929 8.5 11C8.5 12.3807 9.61929 13.5 11 13.5Z" stroke="#B3B3B3" stroke-width="2" stroke-linecap="round" stroke-linejoin="round"/>
<path fill-rule="evenodd" clip-rule="evenodd" d="M17.1667 13.5C16.9397 14.0143 17.0486 14.6149 17.4417 15.0167L17.4917 15.0667C17.8046 15.3793 17.9805 15.8035 17.9805 16.2458C17.9805 16.6882 17.8046 17.1124 17.4917 17.425C17.179 17.738 16.7548 17.9138 16.3125 17.9138C15.8701 17.9138 15.4459 17.738 15.1333 17.425L15.0833 17.375C14.6815 16.982 14.0809 16.8731 13.5667 17.1C13.0629 17.3159 12.7355 17.8103 12.7333 18.3583V18.5C12.7333 19.4205 11.9871 20.1667 11.0667 20.1667C10.1462 20.1667 9.39999 19.4205 9.39999 18.5V18.425C9.38679 17.8606 9.02989 17.3616 8.49999 17.1667C7.98575 16.9397 7.38515 17.0486 6.98333 17.4417L6.93333 17.4917C6.62071 17.8046 6.19651 17.9805 5.75416 17.9805C5.31181 17.9805 4.88761 17.8046 4.57499 17.4917C4.26203 17.1791 4.08618 16.7549 4.08618 16.3125C4.08618 15.8702 4.26203 15.446 4.57499 15.1333L4.62499 15.0833C5.01805 14.6815 5.12695 14.0809 4.89999 13.5667C4.6841 13.063 4.1897 12.7355 3.64166 12.7333H3.49999C2.57952 12.7333 1.83333 11.9872 1.83333 11.0667C1.83333 10.1462 2.57952 9.40001 3.49999 9.40001H3.57499C4.13944 9.38681 4.63844 9.0299 4.83333 8.50001C5.06028 7.98577 4.95138 7.38517 4.55833 6.98334L4.50833 6.93334C4.19537 6.62073 4.01952 6.19653 4.01952 5.75418C4.01952 5.31183 4.19537 4.88762 4.50833 4.57501C4.82094 4.26205 5.24515 4.0862 5.68749 4.0862C6.12984 4.0862 6.55405 4.26205 6.86666 4.57501L6.91666 4.62501C7.31848 5.01806 7.91909 5.12697 8.43333 4.90001H8.49999C9.00372 4.68412 9.33114 4.18971 9.33333 3.64168V3.50001C9.33333 2.57954 10.0795 1.83334 11 1.83334C11.9205 1.83334 12.6667 2.57954 12.6667 3.50001V3.57501C12.6688 4.12305 12.9963 4.61745 13.5 4.83334C14.0142 5.0603 14.6148 4.9514 15.0167 4.55834L15.0667 4.50834C15.3793 4.19538 15.8035 4.01953 16.2458 4.01953C16.6882 4.01953 17.1124 4.19538 17.425 4.50834C17.738 4.82096 17.9138 5.24516 17.9138 5.68751C17.9138 6.12986 17.738 6.55406 17.425 6.86668L17.375 6.91668C16.9819 7.3185 16.873 7.9191 17.1 8.43334V8.50001C17.3159 9.00373 17.8103 9.33116 18.3583 9.33334H18.5C19.4205 9.33334 20.1667 10.0795 20.1667 11C20.1667 11.9205 19.4205 12.6667 18.5 12.6667H18.425C17.877 12.6689 17.3826 12.9963 17.1667 13.5Z" stroke="#B3B3B3" stroke-width="2" stroke-linecap="round" stroke-linejoin="round"/>
</svg>
